<?xml version="1.0" encoding="UTF-8"?>
<!DOCTYPE svg PUBLIC "-//W3C//DTD SVG 1.1//EN" "http://www.w3.org/Graphics/SVG/1.1/DTD/svg11.dtd">
<!-- Creator: CorelDRAW X7 -->
<svg xmlns="http://www.w3.org/2000/svg" xml:space="preserve" width="26.5006mm" height="34.9672mm" version="1.1" style="shape-rendering:geometricPrecision; text-rendering:geometricPrecision; image-rendering:optimizeQuality; fill-rule:evenodd; clip-rule:evenodd"
viewBox="0 0 2650 3497"
 xmlns:xlink="http://www.w3.org/1999/xlink">
 <defs>
  <style type="text/css">
   <![CDATA[
    .str0 {stroke:#FEFEFE;stroke-width:33.86}
    .fil1 {fill:#F79740}
    .fil3 {fill:#ED3237}
    .fil0 {fill:#E69E37}
    .fil2 {fill:#E7B43F}
   ]]>
  </style>
 </defs>
 <g id="Layer_x0020_1">
  <metadata id="CorelCorpID_0Corel-Layer"/>
  <g id="_2590790174784">
   <path class="fil0" d="M1779 3156c-73,251 -335,395 -586,322 -251,-73 -395,-336 -322,-587 73,-250 335,-395 586,-322 251,73 395,336 322,587z"/>
   <path class="fil1" d="M2543 2670c-269,-237 -281,-1454 -281,-1454 -8,-484 -444,-871 -976,-870 -532,13 -955,412 -947,895 0,0 28,1218 -233,1462 -130,121 544,177 1222,172 678,-13 1349,-87 1215,-205z"/>
   <path class="fil0" d="M2536 2649c-270,-238 -281,-1455 -281,-1455 -8,-484 -444,-871 -976,-870 -532,13 -955,412 -947,896 0,0 28,1217 -234,1461 -129,121 544,178 1222,172 678,-13 1349,-87 1216,-204z"/>
   <path class="fil2" d="M1311 1688c-460,-3 -790,-92 -980,-194 -4,151 -12,346 -34,536 53,29 114,56 186,82 226,79 523,125 837,127l0 -1 1 0c313,-10 609,-63 832,-149 63,-24 117,-49 164,-76 -28,-188 -43,-382 -52,-535 -190,103 -510,195 -954,210z"/>
   <path class="fil2" d="M2606 2612c0,0 -75,-39 -125,-21 24,37 38,54 38,54l-36 22c-3,3 -8,6 -14,9 -92,44 -481,105 -1143,118 -662,5 -1053,-46 -1146,-87l-14 -9 -37 -20c0,0 14,-18 37,-55 -51,-17 -125,23 -125,23 -40,38 -52,86 -32,130 32,66 126,117 484,151 225,22 522,32 835,30l1 0 1 0c313,-6 609,-25 834,-52 356,-44 449,-98 478,-165 19,-44 6,-92 -36,-128z"/>
   <path class="fil2" d="M1529 241c2,135 -106,246 -241,248 -135,2 -246,-106 -248,-241 -2,-135 106,-246 241,-248 135,-2 246,106 248,241z"/>
   <path class="fil3 str0" d="M2593 825c-73,251 -335,395 -586,322 -251,-73 -395,-335 -322,-586 73,-251 336,-395 586,-322 251,73 395,335 322,586z"/>
  </g>
 </g>
</svg>
